<svg class="svg-icon" style="width: 1em; height: 1em;vertical-align: middle;fill: currentColor;overflow: hidden;" viewBox="0 0 1024 1024" version="1.1" xmlns="http://www.w3.org/2000/svg"><path d="M812.084 958.259H211.055c-80.65 0-146.194-65.6-146.194-146.224v-601.03c0-80.595 65.546-146.166 146.194-146.166h601.029c80.596 0 146.195 65.571 146.195 146.167v601.03c0 80.623-65.6 146.223-146.195 146.223zM211.055 116.778c-51.966 0-94.228 42.261-94.228 94.228v601.03c0 51.966 42.262 94.255 94.228 94.255h601.029c51.967 0 94.228-42.289 94.228-94.256v-601.03c0-51.966-42.261-94.227-94.228-94.227H211.055z"  /></svg>